# xmcd
#
# Track frame offsets:
#	182
#	24255
#	49222
#	66725
#	83175
#	109942
#	125472
#	144350
#	161592
#	179387
#
# Disc length: 2804 seconds
#
# Revision: 0
# Processed by: cddbd v1.4PL0 Copyright (c) Steve Scherf et al.
# Submitted via: dBpowerAMP V4.0
#
DISCID=8a0af20a
DTITLE=Gerry Beaudoin Trio - Minor Swing
DYEAR=1992
DGENRE=Jazz
TTITLE0=Swing with dr. jake
TTITLE1=annouman
TTITLE2=baby boy blues
TTITLE3=ain't no sunshine
TTITLE4=django's castle
TTITLE5=minor swing
TTITLE6=in a mellow tune
TTITLE7=so long ebony
TTITLE8=airola
TTITLE9=jackie's serenade
EXTD=
EXTT0=
EXTT1=
EXTT2=
EXTT3=
EXTT4=
EXTT5=
EXTT6=
EXTT7=
EXTT8=
EXTT9=
PLAYORDER=
